<svg width="165" height="33" viewBox="0 0 165 33" fill="none" xmlns="http://www.w3.org/2000/svg">
<path d="M12.136 23.192C10.664 23.192 9.368 22.904 8.248 22.328C7.144 21.752 6.288 20.968 5.68 19.976C5.072 18.968 4.768 17.824 4.768 16.544C4.768 15.248 5.064 14.104 5.656 13.112C6.264 12.104 7.088 11.32 8.128 10.76C9.168 10.184 10.344 9.896 11.656 9.896C12.92 9.896 14.056 10.168 15.064 10.712C16.088 11.24 16.896 12.008 17.488 13.016C18.08 14.008 18.376 15.2 18.376 16.592C18.376 16.736 18.368 16.904 18.352 17.096C18.336 17.272 18.32 17.44 18.304 17.6H7.816V15.416H16.336L14.896 16.064C14.896 15.392 14.76 14.808 14.488 14.312C14.216 13.816 13.84 13.432 13.36 13.16C12.88 12.872 12.32 12.728 11.68 12.728C11.04 12.728 10.472 12.872 9.976 13.16C9.496 13.432 9.12 13.824 8.848 14.336C8.576 14.832 8.44 15.424 8.44 16.112V16.688C8.44 17.392 8.592 18.016 8.896 18.56C9.216 19.088 9.656 19.496 10.216 19.784C10.792 20.056 11.464 20.192 12.232 20.192C12.92 20.192 13.52 20.088 14.032 19.88C14.56 19.672 15.04 19.36 15.472 18.944L17.464 21.104C16.872 21.776 16.128 22.296 15.232 22.664C14.336 23.016 13.304 23.192 12.136 23.192ZM20.623 17.744V14.744H27.415V17.744H20.623ZM36.8352 23.192C35.4432 23.192 34.2032 22.912 33.1152 22.352C32.0272 21.776 31.1712 20.984 30.5472 19.976C29.9392 18.968 29.6352 17.824 29.6352 16.544C29.6352 15.248 29.9392 14.104 30.5472 13.112C31.1712 12.104 32.0272 11.32 33.1152 10.76C34.2032 10.184 35.4432 9.896 36.8352 9.896C38.1952 9.896 39.3792 10.184 40.3872 10.76C41.3952 11.32 42.1392 12.128 42.6192 13.184L39.7152 14.744C39.3792 14.136 38.9552 13.688 38.4432 13.4C37.9472 13.112 37.4032 12.968 36.8112 12.968C36.1712 12.968 35.5952 13.112 35.0832 13.4C34.5712 13.688 34.1632 14.096 33.8592 14.624C33.5712 15.152 33.4272 15.792 33.4272 16.544C33.4272 17.296 33.5712 17.936 33.8592 18.464C34.1632 18.992 34.5712 19.4 35.0832 19.688C35.5952 19.976 36.1712 20.12 36.8112 20.12C37.4032 20.12 37.9472 19.984 38.4432 19.712C38.9552 19.424 39.3792 18.968 39.7152 18.344L42.6192 19.928C42.1392 20.968 41.3952 21.776 40.3872 22.352C39.3792 22.912 38.1952 23.192 36.8352 23.192ZM50.7548 23.192C49.3788 23.192 48.1548 22.904 47.0828 22.328C46.0268 21.752 45.1868 20.968 44.5628 19.976C43.9548 18.968 43.6508 17.824 43.6508 16.544C43.6508 15.248 43.9548 14.104 44.5628 13.112C45.1868 12.104 46.0268 11.32 47.0828 10.76C48.1548 10.184 49.3788 9.896 50.7548 9.896C52.1148 9.896 53.3308 10.184 54.4028 10.76C55.4748 11.32 56.3148 12.096 56.9228 13.088C57.5308 14.08 57.8348 15.232 57.8348 16.544C57.8348 17.824 57.5308 18.968 56.9228 19.976C56.3148 20.968 55.4748 21.752 54.4028 22.328C53.3308 22.904 52.1148 23.192 50.7548 23.192ZM50.7548 20.12C51.3788 20.12 51.9388 19.976 52.4348 19.688C52.9308 19.4 53.3228 18.992 53.6108 18.464C53.8988 17.92 54.0428 17.28 54.0428 16.544C54.0428 15.792 53.8988 15.152 53.6108 14.624C53.3228 14.096 52.9308 13.688 52.4348 13.4C51.9388 13.112 51.3788 12.968 50.7548 12.968C50.1308 12.968 49.5708 13.112 49.0748 13.4C48.5788 13.688 48.1788 14.096 47.8748 14.624C47.5868 15.152 47.4428 15.792 47.4428 16.544C47.4428 17.28 47.5868 17.92 47.8748 18.464C48.1788 18.992 48.5788 19.4 49.0748 19.688C49.5708 19.976 50.1308 20.12 50.7548 20.12ZM76.8734 9.896C77.8974 9.896 78.8014 10.104 79.5854 10.52C80.3854 10.92 81.0094 11.544 81.4574 12.392C81.9214 13.224 82.1534 14.296 82.1534 15.608V23H78.4094V16.184C78.4094 15.144 78.1934 14.376 77.7614 13.88C77.3294 13.384 76.7214 13.136 75.9374 13.136C75.3934 13.136 74.9054 13.264 74.4734 13.52C74.0414 13.76 73.7054 14.128 73.4654 14.624C73.2254 15.12 73.1054 15.752 73.1054 16.52V23H69.3614V16.184C69.3614 15.144 69.1454 14.376 68.7134 13.88C68.2974 13.384 67.6974 13.136 66.9134 13.136C66.3694 13.136 65.8814 13.264 65.4494 13.52C65.0174 13.76 64.6814 14.128 64.4414 14.624C64.2014 15.12 64.0814 15.752 64.0814 16.52V23H60.3374V10.088H63.9134V13.616L63.2414 12.584C63.6894 11.704 64.3214 11.04 65.1374 10.592C65.9694 10.128 66.9134 9.896 67.9694 9.896C69.1534 9.896 70.1854 10.2 71.0654 10.808C71.9614 11.4 72.5534 12.312 72.8414 13.544L71.5214 13.184C71.9534 12.176 72.6414 11.376 73.5854 10.784C74.5454 10.192 75.6414 9.896 76.8734 9.896ZM102.045 9.896C103.069 9.896 103.973 10.104 104.757 10.52C105.557 10.92 106.181 11.544 106.629 12.392C107.093 13.224 107.325 14.296 107.325 15.608V23H103.581V16.184C103.581 15.144 103.365 14.376 102.933 13.88C102.501 13.384 101.893 13.136 101.109 13.136C100.565 13.136 100.077 13.264 99.6453 13.52C99.2133 13.76 98.8773 14.128 98.6373 14.624C98.3973 15.12 98.2773 15.752 98.2773 16.52V23H94.5333V16.184C94.5333 15.144 94.3173 14.376 93.8853 13.88C93.4693 13.384 92.8693 13.136 92.0853 13.136C91.5413 13.136 91.0533 13.264 90.6213 13.52C90.1893 13.76 89.8533 14.128 89.6133 14.624C89.3733 15.12 89.2533 15.752 89.2533 16.52V23H85.5093V10.088H89.0853V13.616L88.4133 12.584C88.8613 11.704 89.4933 11.04 90.3093 10.592C91.1413 10.128 92.0853 9.896 93.1413 9.896C94.3253 9.896 95.3573 10.2 96.2373 10.808C97.1333 11.4 97.7253 12.312 98.0133 13.544L96.6933 13.184C97.1253 12.176 97.8133 11.376 98.7573 10.784C99.7173 10.192 100.813 9.896 102.045 9.896ZM117.183 23.192C115.711 23.192 114.415 22.904 113.295 22.328C112.191 21.752 111.335 20.968 110.727 19.976C110.119 18.968 109.815 17.824 109.815 16.544C109.815 15.248 110.111 14.104 110.703 13.112C111.311 12.104 112.135 11.32 113.175 10.76C114.215 10.184 115.391 9.896 116.703 9.896C117.967 9.896 119.103 10.168 120.111 10.712C121.135 11.24 121.943 12.008 122.535 13.016C123.127 14.008 123.423 15.2 123.423 16.592C123.423 16.736 123.415 16.904 123.399 17.096C123.383 17.272 123.367 17.44 123.351 17.6H112.863V15.416H121.383L119.943 16.064C119.943 15.392 119.807 14.808 119.535 14.312C119.263 13.816 118.887 13.432 118.407 13.16C117.927 12.872 117.367 12.728 116.727 12.728C116.087 12.728 115.519 12.872 115.023 13.16C114.543 13.432 114.167 13.824 113.895 14.336C113.623 14.832 113.487 15.424 113.487 16.112V16.688C113.487 17.392 113.639 18.016 113.943 18.56C114.263 19.088 114.703 19.496 115.263 19.784C115.839 20.056 116.511 20.192 117.279 20.192C117.967 20.192 118.567 20.088 119.079 19.88C119.607 19.672 120.087 19.36 120.519 18.944L122.511 21.104C121.919 21.776 121.175 22.296 120.279 22.664C119.383 23.016 118.351 23.192 117.183 23.192ZM125.916 23V10.088H129.492V13.736L128.988 12.68C129.372 11.768 129.988 11.08 130.836 10.616C131.684 10.136 132.716 9.896 133.932 9.896V13.352C133.772 13.336 133.628 13.328 133.5 13.328C133.372 13.312 133.236 13.304 133.092 13.304C132.068 13.304 131.236 13.6 130.596 14.192C129.972 14.768 129.66 15.672 129.66 16.904V23H125.916ZM142.304 23.192C140.912 23.192 139.672 22.912 138.584 22.352C137.496 21.776 136.64 20.984 136.016 19.976C135.408 18.968 135.104 17.824 135.104 16.544C135.104 15.248 135.408 14.104 136.016 13.112C136.64 12.104 137.496 11.32 138.584 10.76C139.672 10.184 140.912 9.896 142.304 9.896C143.664 9.896 144.848 10.184 145.856 10.76C146.864 11.32 147.608 12.128 148.088 13.184L145.184 14.744C144.848 14.136 144.424 13.688 143.912 13.4C143.416 13.112 142.872 12.968 142.28 12.968C141.64 12.968 141.064 13.112 140.552 13.4C140.04 13.688 139.632 14.096 139.328 14.624C139.04 15.152 138.896 15.792 138.896 16.544C138.896 17.296 139.04 17.936 139.328 18.464C139.632 18.992 140.04 19.4 140.552 19.688C141.064 19.976 141.64 20.12 142.28 20.12C142.872 20.12 143.416 19.984 143.912 19.712C144.424 19.424 144.848 18.968 145.184 18.344L148.088 19.928C147.608 20.968 146.864 21.776 145.856 22.352C144.848 22.912 143.664 23.192 142.304 23.192ZM156.488 23.192C155.016 23.192 153.72 22.904 152.6 22.328C151.496 21.752 150.64 20.968 150.032 19.976C149.424 18.968 149.12 17.824 149.12 16.544C149.12 15.248 149.416 14.104 150.008 13.112C150.616 12.104 151.44 11.32 152.48 10.76C153.52 10.184 154.696 9.896 156.008 9.896C157.272 9.896 158.408 10.168 159.416 10.712C160.44 11.24 161.248 12.008 161.84 13.016C162.432 14.008 162.728 15.2 162.728 16.592C162.728 16.736 162.72 16.904 162.704 17.096C162.688 17.272 162.672 17.44 162.656 17.6H152.168V15.416H160.688L159.248 16.064C159.248 15.392 159.112 14.808 158.84 14.312C158.568 13.816 158.192 13.432 157.712 13.16C157.232 12.872 156.672 12.728 156.032 12.728C155.392 12.728 154.824 12.872 154.328 13.16C153.848 13.432 153.472 13.824 153.2 14.336C152.928 14.832 152.792 15.424 152.792 16.112V16.688C152.792 17.392 152.944 18.016 153.248 18.56C153.568 19.088 154.008 19.496 154.568 19.784C155.144 20.056 155.816 20.192 156.584 20.192C157.272 20.192 157.872 20.088 158.384 19.88C158.912 19.672 159.392 19.36 159.824 18.944L161.816 21.104C161.224 21.776 160.48 22.296 159.584 22.664C158.688 23.016 157.656 23.192 156.488 23.192Z" fill="white"/>
<mask id="path-2-outside-1_1_12" maskUnits="userSpaceOnUse" x="-1" y="1" width="14" height="14" fill="black">
<rect fill="white" x="-1" y="1" width="14" height="14"/>
<path d="M1.001 11V4.95C1.001 4.28267 1.199 3.751 1.595 3.355C1.991 2.95167 2.55567 2.75 3.289 2.75C3.53833 2.75 3.77667 2.77567 4.004 2.827C4.23867 2.87833 4.43667 2.959 4.598 3.069L4.147 4.312C4.05167 4.246 3.94533 4.19467 3.828 4.158C3.71067 4.12133 3.586 4.103 3.454 4.103C3.20467 4.103 3.01033 4.17633 2.871 4.323C2.739 4.46233 2.673 4.675 2.673 4.961V5.511L2.717 6.248V11H1.001ZM0.088 6.534V5.214H4.191V6.534H0.088ZM5.90133 13.222C5.59333 13.222 5.28899 13.1743 4.98833 13.079C4.68766 12.9837 4.44199 12.8517 4.25133 12.683L4.87833 11.462C5.01033 11.5793 5.16066 11.671 5.32933 11.737C5.50533 11.803 5.67766 11.836 5.84633 11.836C6.08833 11.836 6.27899 11.7773 6.41833 11.66C6.56499 11.55 6.69699 11.363 6.81433 11.099L7.12233 10.373L7.25433 10.186L9.37733 5.082H11.0273L8.35433 11.363C8.16366 11.8397 7.94366 12.2137 7.69433 12.485C7.45233 12.7563 7.18099 12.947 6.88033 13.057C6.58699 13.167 6.26066 13.222 5.90133 13.222ZM6.91333 11.231L4.27333 5.082H6.04433L8.09033 10.032L6.91333 11.231Z"/>
</mask>
<path d="M1.001 11V4.95C1.001 4.28267 1.199 3.751 1.595 3.355C1.991 2.95167 2.55567 2.75 3.289 2.75C3.53833 2.75 3.77667 2.77567 4.004 2.827C4.23867 2.87833 4.43667 2.959 4.598 3.069L4.147 4.312C4.05167 4.246 3.94533 4.19467 3.828 4.158C3.71067 4.12133 3.586 4.103 3.454 4.103C3.20467 4.103 3.01033 4.17633 2.871 4.323C2.739 4.46233 2.673 4.675 2.673 4.961V5.511L2.717 6.248V11H1.001ZM0.088 6.534V5.214H4.191V6.534H0.088ZM5.90133 13.222C5.59333 13.222 5.28899 13.1743 4.98833 13.079C4.68766 12.9837 4.44199 12.8517 4.25133 12.683L4.87833 11.462C5.01033 11.5793 5.16066 11.671 5.32933 11.737C5.50533 11.803 5.67766 11.836 5.84633 11.836C6.08833 11.836 6.27899 11.7773 6.41833 11.66C6.56499 11.55 6.69699 11.363 6.81433 11.099L7.12233 10.373L7.25433 10.186L9.37733 5.082H11.0273L8.35433 11.363C8.16366 11.8397 7.94366 12.2137 7.69433 12.485C7.45233 12.7563 7.18099 12.947 6.88033 13.057C6.58699 13.167 6.26066 13.222 5.90133 13.222ZM6.91333 11.231L4.27333 5.082H6.04433L8.09033 10.032L6.91333 11.231Z" fill="white"/>
<path d="M1.001 11H0.00100006V12H1.001V11ZM1.595 3.355L2.30214 4.06214L2.30856 4.05559L1.595 3.355ZM4.004 2.827L3.78373 3.80246L3.7903 3.8039L4.004 2.827ZM4.598 3.069L5.53804 3.41007L5.80287 2.68018L5.16134 2.24277L4.598 3.069ZM4.147 4.312L3.57779 5.13419L4.64452 5.8727L5.08704 4.65307L4.147 4.312ZM2.871 4.323L2.146 3.63425L2.14505 3.63526L2.871 4.323ZM2.673 5.511H1.673V5.54082L1.67478 5.5706L2.673 5.511ZM2.717 6.248H3.717V6.21818L3.71522 6.1884L2.717 6.248ZM2.717 11V12H3.717V11H2.717ZM0.088 6.534H-0.912V7.534H0.088V6.534ZM0.088 5.214V4.214H-0.912V5.214H0.088ZM4.191 5.214H5.191V4.214H4.191V5.214ZM4.191 6.534V7.534H5.191V6.534H4.191ZM2.001 11V4.95H0.00100006V11H2.001ZM2.001 4.95C2.001 4.49337 2.12896 4.23525 2.30211 4.06211L0.887893 2.64789C0.269039 3.26675 0.00100006 4.07196 0.00100006 4.95H2.001ZM2.30856 4.05559C2.46514 3.89611 2.74057 3.75 3.289 3.75V1.75C2.37076 1.75 1.51686 2.00722 0.881436 2.65441L2.30856 4.05559ZM3.289 3.75C3.46936 3.75 3.63353 3.76852 3.78374 3.80244L4.22426 1.85156C3.9198 1.78281 3.6073 1.75 3.289 1.75V3.75ZM3.7903 3.8039C3.92777 3.83397 4.00045 3.8719 4.03466 3.89523L5.16134 2.24277C4.87289 2.0461 4.54956 1.92269 4.2177 1.8501L3.7903 3.8039ZM3.65796 2.72792L3.20696 3.97092L5.08704 4.65307L5.53804 3.41007L3.65796 2.72792ZM4.71621 3.48981C4.5329 3.3629 4.33427 3.26852 4.12628 3.20352L3.52973 5.11248C3.5564 5.12082 3.57043 5.1291 3.57779 5.13419L4.71621 3.48981ZM4.12628 3.20352C3.90552 3.13454 3.6797 3.103 3.454 3.103V5.103C3.4923 5.103 3.51581 5.10813 3.52973 5.11248L4.12628 3.20352ZM3.454 3.103C2.99874 3.103 2.51644 3.24431 2.146 3.63425L3.596 5.01175C3.55904 5.05065 3.51425 5.07853 3.47431 5.0936C3.43853 5.1071 3.4264 5.103 3.454 5.103V3.103ZM2.14505 3.63526C1.76748 4.0338 1.673 4.54238 1.673 4.961H3.673C3.673 4.89146 3.68142 4.87096 3.67756 4.8834C3.67243 4.89994 3.65193 4.95271 3.59695 5.01074L2.14505 3.63526ZM1.673 4.961V5.511H3.673V4.961H1.673ZM1.67478 5.5706L1.71878 6.3076L3.71522 6.1884L3.67122 5.4514L1.67478 5.5706ZM1.717 6.248V11H3.717V6.248H1.717ZM2.717 10H1.001V12H2.717V10ZM1.088 6.534V5.214H-0.912V6.534H1.088ZM0.088 6.214H4.191V4.214H0.088V6.214ZM3.191 5.214V6.534H5.191V5.214H3.191ZM4.191 5.534H0.088V7.534H4.191V5.534ZM4.98833 13.079L5.29057 12.1258L4.98833 13.079ZM4.25133 12.683L3.36176 12.2262L3.00689 12.9173L3.58875 13.432L4.25133 12.683ZM4.87833 11.462L5.54269 10.7146L4.57823 9.85729L3.98876 11.0052L4.87833 11.462ZM5.32933 11.737L4.96493 12.6682L4.97155 12.6708L4.9782 12.6733L5.32933 11.737ZM6.41833 11.66L5.81833 10.86L5.79577 10.8769L5.77419 10.8951L6.41833 11.66ZM6.81433 11.099L7.72814 11.5051L7.73159 11.4974L7.73491 11.4895L6.81433 11.099ZM7.12233 10.373L6.30536 9.79632L6.24358 9.88383L6.20175 9.98245L7.12233 10.373ZM7.25433 10.186L8.0713 10.7627L8.13513 10.6723L8.17764 10.5701L7.25433 10.186ZM9.37733 5.082V4.082H8.71022L8.45402 4.69795L9.37733 5.082ZM11.0273 5.082L11.9475 5.47358L12.5397 4.082H11.0273V5.082ZM8.35433 11.363L7.43419 10.9714L7.42991 10.9815L7.42585 10.9916L8.35433 11.363ZM7.69433 12.485L6.958 11.8084L6.95298 11.8138L6.94803 11.8194L7.69433 12.485ZM6.88033 13.057L6.53674 12.1178L6.5292 12.1207L6.88033 13.057ZM6.91333 11.231L5.99444 11.6255L6.58259 12.9954L7.62695 11.9315L6.91333 11.231ZM4.27333 5.082V4.082H2.75572L3.35444 5.47651L4.27333 5.082ZM6.04433 5.082L6.9685 4.70001L6.71305 4.082H6.04433V5.082ZM8.09033 10.032L8.80395 10.7325L9.26698 10.2609L9.01449 9.65001L8.09033 10.032ZM5.90133 12.222C5.69835 12.222 5.49587 12.1909 5.29057 12.1258L4.68608 14.0322C5.08212 14.1578 5.48831 14.222 5.90133 14.222V12.222ZM5.29057 12.1258C5.09203 12.0628 4.97819 11.9909 4.9139 11.934L3.58875 13.432C3.9058 13.7125 4.28329 13.9045 4.68608 14.0322L5.29057 12.1258ZM5.1409 13.1398L5.7679 11.9188L3.98876 11.0052L3.36176 12.2262L5.1409 13.1398ZM4.21396 12.2094C4.43657 12.4073 4.68906 12.5603 4.96493 12.6682L5.69373 10.8058C5.63227 10.7817 5.58409 10.7514 5.54269 10.7146L4.21396 12.2094ZM4.9782 12.6733C5.25369 12.7766 5.54481 12.836 5.84633 12.836V10.836C5.81051 10.836 5.75696 10.8294 5.68045 10.8007L4.9782 12.6733ZM5.84633 12.836C6.2459 12.836 6.69094 12.7378 7.06246 12.4249L5.77419 10.8951C5.81661 10.8594 5.85605 10.8426 5.87674 10.8362C5.89444 10.8308 5.8881 10.836 5.84633 10.836V12.836ZM7.01833 12.46C7.35834 12.205 7.57763 11.8438 7.72814 11.5051L5.90052 10.6929C5.86189 10.7798 5.83026 10.8324 5.81036 10.8606C5.79027 10.889 5.79036 10.881 5.81833 10.86L7.01833 12.46ZM7.73491 11.4895L8.04291 10.7635L6.20175 9.98245L5.89375 10.7085L7.73491 11.4895ZM7.9393 10.9497L8.0713 10.7627L6.43736 9.60932L6.30536 9.79632L7.9393 10.9497ZM8.17764 10.5701L10.3006 5.46605L8.45402 4.69795L6.33102 9.80195L8.17764 10.5701ZM9.37733 6.082H11.0273V4.082H9.37733V6.082ZM10.1072 4.69042L7.43419 10.9714L9.27447 11.7546L11.9475 5.47358L10.1072 4.69042ZM7.42585 10.9916C7.2638 11.3967 7.09997 11.6539 6.958 11.8084L8.43066 13.1616C8.78736 12.7734 9.06352 12.2826 9.2828 11.7344L7.42585 10.9916ZM6.94803 11.8194C6.80065 11.9846 6.66278 12.0718 6.53675 12.1179L7.22391 13.9961C7.69921 13.8222 8.10401 13.528 8.44062 13.1506L6.94803 11.8194ZM6.5292 12.1207C6.36336 12.1829 6.15815 12.222 5.90133 12.222V14.222C6.36317 14.222 6.81063 14.1511 7.23145 13.9933L6.5292 12.1207ZM7.83222 10.8365L5.19222 4.68749L3.35444 5.47651L5.99444 11.6255L7.83222 10.8365ZM4.27333 6.082H6.04433V4.082H4.27333V6.082ZM5.12016 5.46399L7.16616 10.414L9.01449 9.65001L6.9685 4.70001L5.12016 5.46399ZM7.3767 9.33147L6.1997 10.5305L7.62695 11.9315L8.80395 10.7325L7.3767 9.33147Z" fill="black" mask="url(#path-2-outside-1_1_12)"/>
</svg>
